<?xml version="1.0" encoding="utf-8"?>
<!-- Generator: Adobe Illustrator 26.2.1, SVG Export Plug-In . SVG Version: 6.00 Build 0)  -->
<svg version="1.1" id="Layer_1" xmlns="http://www.w3.org/2000/svg" xmlns:xlink="http://www.w3.org/1999/xlink" x="0px" y="0px"
	 viewBox="0 0 64 64" style="enable-background:new 0 0 64 64;" xml:space="preserve">
<style type="text/css">
	.st0{fill:#212529;}
</style>
<path class="st0" d="M44.5,41.5c-12.7-1.1-22.1-12.2-21-24.8c0.1-1.7,0.5-3.3,1-4.9c0.2-0.5-0.1-1.1-0.7-1.3c-0.3-0.1-0.6,0-0.8,0.1
	C12,16.9,8.2,31,14.5,42S35,56.8,46,50.5c3.5-2,6.4-4.9,8.5-8.5c0.3-0.5,0.1-1.1-0.4-1.4c-0.2-0.1-0.5-0.2-0.8-0.1
	C50.4,41.4,47.5,41.7,44.5,41.5z"/>
</svg>
