<?xml version="1.0" encoding="utf-8"?>
<!-- Generator: Adobe Illustrator 26.2.1, SVG Export Plug-In . SVG Version: 6.00 Build 0)  -->
<svg version="1.1" id="Layer_1" xmlns="http://www.w3.org/2000/svg" xmlns:xlink="http://www.w3.org/1999/xlink" x="0px" y="0px"
	 viewBox="0 0 64 64" style="enable-background:new 0 0 64 64;" xml:space="preserve">
<style type="text/css">
	.st0{fill-rule:evenodd;clip-rule:evenodd;fill:#ECECEC;}
	.st1{fill:none;stroke:#ECECEC;stroke-width:2.5;stroke-linecap:round;stroke-linejoin:bevel;stroke-miterlimit:22.9256;}
</style>
<g id="Layer_x0020_1">
	<g id="_866321920">
		<circle class="st0" cx="32" cy="32" r="12.9"/>
		<path class="st1" d="M32,12.4c0,1.5,0,2,0,2 M22.2,15c0.8,1.3,1,1.7,1,1.7 M15,22.2c1.3,0.8,1.7,1,1.7,1 M12.4,32c1.5,0,2,0,2,0
			 M15,41.8c1.3-0.8,1.7-1,1.7-1 M22.2,49c0.8-1.3,1-1.7,1-1.7 M32,51.6c0-1.5,0-2,0-2 M41.8,49c-0.8-1.3-1-1.7-1-1.7 M49,41.8
			c-1.3-0.8-1.7-1-1.7-1 M51.6,32c-1.5,0-2,0-2,0 M49,22.2c-1.3,0.8-1.7,1-1.7,1 M41.8,15c-0.8,1.3-1,1.7-1,1.7"/>
	</g>
</g>
</svg>
