<?xml version="1.0" encoding="utf-8"?>
<!-- Generator: Adobe Illustrator 26.2.1, SVG Export Plug-In . SVG Version: 6.00 Build 0)  -->
<svg version="1.1" id="Layer_1" xmlns="http://www.w3.org/2000/svg" xmlns:xlink="http://www.w3.org/1999/xlink" x="0px" y="0px"
	 viewBox="0 0 68.7 16.7" style="enable-background:new 0 0 68.7 16.7;" xml:space="preserve">
<g>
	<path d="M14.2,4.7H9.1V2.9h7.1v1.7l-5.1,6.8h5.1v1.7H9.1v-1.7L14.2,4.7z"/>
	<path d="M17.2,8.2c0-1.5,1.2-2.7,2.5-2.7h1.7c1.6,0,2.5,1.5,2.5,2.7v1.9h-4.9v0.4c0,0.7,0.5,1,1.1,1h3.5v1.7h-3.9
		c-1.4,0-2.5-1.1-2.5-2.6V8.2z M18.9,8.7H22V8.6c0-0.8-0.4-1.3-1.1-1.3H20C19.4,7.2,18.9,7.9,18.9,8.7L18.9,8.7z"/>
	<path d="M30,5.7h0.2v1.9H30c-1.5,0-3.2,1.3-3.2,2.4v3.2h-1.9V5.4h1.9v1.6C27.4,6.1,28.7,5.7,30,5.7z"/>
	<path d="M34.5,5.5c1.8,0,2.8,1.1,2.8,2.8v2.1c0,1.7-1.1,2.8-2.8,2.8h-0.6c-1.7,0-2.8-1.1-2.8-2.8V8.3c0-1.7,1.1-2.8,2.8-2.8H34.5z
		 M33.9,7.2c-0.6,0-1.1,0.5-1.1,1.1v2c0,0.6,0.5,1.1,1.1,1.1h0.6c0.6,0,1.1-0.5,1.1-1.1v-2c0-0.6-0.5-1.1-1.1-1.1H33.9z"/>
	<path d="M39.8,13.4V2.2h5.9v11.2H39.8z M41.7,11.8h2.2v-8h-2.2V11.8z M47.3,13.5V2.1H49v3.8h1.2v1.6H49v5.9H47.3z"/>
	<path d="M55.5,4.8h1.2V2.1h1.6v6.5h-1.6V6.3h-1.5l-0.4,2.3H53l0.4-2H51V5.1h2.7l0.2-1.2h-3.1V2.2h4.9v1.5L55.5,4.8z M56.4,11.2
		L54,13.5h-2.4l4.1-4H57l4.1,4h-2.4L56.4,11.2z M60.8,9.8h-1.7V2.1h1.7V9.8z"/>
</g>
</svg>


